<?xml version="1.0" standalone="no"?>
<!DOCTYPE svg PUBLIC "-//W3C//DTD SVG 20010904//EN"
 "http://www.w3.org/TR/2001/REC-SVG-20010904/DTD/svg10.dtd">
<svg version="1.0" xmlns="http://www.w3.org/2000/svg"
 width="1280.000000pt" height="1148.000000pt" viewBox="0 0 1280.000000 1148.000000"
 preserveAspectRatio="xMidYMid meet">
<metadata>
Created by potrace 1.15, written by Peter Selinger 2001-2017
</metadata>
<g transform="translate(0.000000,1148.000000) scale(0.100000,-0.100000)"
fill="#ffc107" stroke="none">
<path d="M3780 11470 c-696 -60 -1302 -261 -1880 -623 -731 -459 -1330 -1191
-1630 -1992 -73 -194 -96 -267 -140 -440 -196 -768 -169 -1557 80 -2305 261
-785 751 -1467 1415 -1970 659 -500 1471 -790 2288 -817 168 -6 187 -5 187 10
0 9 -7 65 -14 124 -34 253 -40 348 -40 638 1 406 32 686 118 1053 53 225 155
545 229 712 10 25 32 75 47 112 l28 67 -66 -45 c-127 -85 -267 -141 -445 -178
l-102 -21 -3 -178 -2 -177 -215 0 -215 0 0 184 0 183 -77 13 c-314 50 -607
240 -727 470 -86 166 -125 359 -133 663 l-6 207 472 0 471 0 0 -207 c1 -276
14 -451 38 -506 23 -51 68 -77 134 -77 116 1 176 76 185 233 7 120 -12 354
-36 440 -37 133 -98 192 -414 395 -313 203 -430 286 -518 370 -165 157 -283
383 -325 623 -22 128 -15 379 15 497 68 270 232 456 501 570 98 42 261 85 363
97 l57 7 0 149 0 148 215 3 215 3 2 -149 3 -150 110 -22 c446 -90 684 -330
745 -749 11 -80 13 -240 4 -309 l-7 -46 -468 0 -469 0 0 168 c-1 180 -15 293
-44 336 -24 38 -79 59 -139 53 -62 -5 -96 -30 -127 -93 -23 -45 -25 -60 -25
-179 0 -98 5 -145 18 -189 33 -106 125 -180 557 -446 484 -298 574 -376 683
-588 97 -189 133 -382 123 -657 -4 -93 -9 -188 -12 -210 -6 -39 -4 -38 56 50
460 664 1068 1192 1785 1552 330 166 807 327 1175 398 47 8 95 18 107 20 l22
5 -23 68 c-61 179 -170 418 -275 607 -560 1001 -1498 1717 -2606 1988 -159 39
-331 70 -520 92 -155 19 -597 27 -745 15z"/>
<path d="M7950 10976 l0 -255 58 -11 c366 -76 622 -260 833 -601 44 -71 159
-290 159 -303 0 -3 -129 -2 -287 1 -244 5 -286 4 -281 -8 3 -8 180 -300 393
-649 214 -349 403 -659 420 -688 l32 -53 440 688 439 688 -236 6 c-129 4 -269
7 -311 8 l-77 1 -43 108 c-269 673 -623 1053 -1144 1227 -96 32 -347 94 -382
95 -10 0 -13 -57 -13 -254z"/>
<path d="M8555 8163 c-587 -29 -1093 -155 -1602 -398 -818 -391 -1501 -1069
-1903 -1890 -197 -404 -324 -836 -387 -1320 -28 -216 -25 -751 5 -971 129
-950 532 -1763 1199 -2415 816 -798 1908 -1214 3045 -1158 947 46 1816 401
2527 1034 324 289 604 635 828 1025 509 885 661 1976 417 2978 -321 1315
-1271 2387 -2534 2860 -503 189 -1081 281 -1595 255z m655 -1897 c74 -14 177
-38 228 -54 l92 -28 0 -478 c0 -264 -2 -481 -4 -484 -3 -2 -45 16 -95 42 -115
59 -270 111 -396 132 -119 19 -350 14 -460 -10 -315 -70 -594 -248 -782 -501
l-53 -70 898 -5 897 -5 0 -203 0 -202 -985 -3 -984 -2 -8 -35 c-22 -104 -29
-235 -18 -347 6 -65 13 -126 16 -138 5 -20 7 -20 992 -20 l987 0 0 -205 0
-205 -908 -3 -908 -2 53 -77 c74 -109 225 -257 335 -331 228 -151 459 -222
726 -222 230 0 444 55 633 161 30 17 57 29 60 27 2 -3 4 -221 4 -484 l1 -479
-113 -33 c-183 -53 -313 -73 -515 -79 -204 -6 -348 5 -522 42 -570 121 -1058
460 -1391 965 -69 106 -173 314 -215 433 l-28 77 -288 0 -289 0 0 210 0 209
243 0 242 1 -2 22 c-6 70 -5 365 1 436 l8 83 -246 -3 -246 -3 0 208 0 207 294
0 294 0 18 48 c193 523 578 954 1081 1210 206 104 465 186 668 211 50 6 101
13 115 15 14 3 117 3 230 1 170 -2 228 -7 340 -29z"/>
<path d="M3120 2139 c-239 -375 -436 -685 -438 -690 -2 -5 75 -9 180 -10 101
-1 241 -4 311 -8 l129 -6 44 -110 c143 -356 319 -638 525 -843 227 -225 510
-369 881 -447 65 -14 120 -25 123 -25 3 0 5 114 5 254 l0 253 -102 25 c-265
65 -458 181 -633 380 -100 114 -221 308 -289 461 l-26 59 292 -7 292 -8 -15
24 c-9 13 -199 325 -424 694 -224 369 -411 673 -414 677 -4 4 -202 -299 -441
-673z"/>
</g>
</svg>
