<svg enable-background="new 0 0 512 512" viewbox="0 0 512 512" xmlns="http://www.w3.org/2000/svg">
            <g>
                <path
                    d="m512 390v-390h-512v390h241v32h-15c-41.355 0-75 33.645-75 75v15h210v-15c0-41.355-33.645-75-75-75h-15v-32zm-226 62c19.556 0 36.239 12.539 42.43 30h-144.86c6.191-17.461 22.874-30 42.43-30zm-256-92v-330h452v330c-12.164 0-438.947 0-452 0z">
                </path>
                <path
                    d="m136 180c24.813 0 45-20.187 45-45s-20.187-45-45-45-45 20.187-45 45 20.187 45 45 45zm0-60c8.271 0 15 6.729 15 15s-6.729 15-15 15-15-6.729-15-15 6.729-15 15-15z">
                </path>
                <path
                    d="m184.568 197.848c-28.678-24.39-60.953-16.827-61.054-16.833-35.639 5.799-62.514 38.985-62.514 77.196v41.789h150v-45c0-22.034-9.634-42.865-26.432-57.152zm-3.568 72.152h-90v-11.789c0-23.666 16.049-44.122 37.332-47.584 13.509-2.198 26.578 1.38 36.801 10.074 10.083 8.577 15.867 21.078 15.867 34.299z">
                </path>
                <path d="m241 270h120v30h-120z"></path>
                <path d="m241 210h210v30h-210z"></path>
                <path d="m241 150h210v30h-210z"></path>
                <path d="m331 90h120v30h-120z"></path>
                <path d="m241 90h60v30h-60z"></path>
                <path d="m391 270h60v30h-60z"></path>
            </g>
        </svg>