<svg enable-background="new 0 0 512 512" viewbox="0 0 512 512" xmlns="http://www.w3.org/2000/svg">
            <g>
                <path
                    d="m345.622 126.038c-50.748-45.076-130.482-46.914-183.244 3.903-21.262 20.478-35.375 47.381-39.737 75.754-5.454 35.471 2.872 70.834 23.444 99.576 56.271 78.616 49.132 141.058 49.915 145.691 0 16.435 6.211 31.795 17.491 43.253 11.289 11.469 26.386 17.785 42.509 17.785 33.084 0 60-26.916 60-60 .686-4.269-6.11-72.81 47.676-143.691 17.875-23.557 27.324-51.673 27.324-81.309 0-38.547-16.54-75.347-45.378-100.962zm-89.622 355.962c-16.486 0-29.462-13.096-29.975-30h59.975c0 16.542-13.458 30-30 30zm83.777-191.826c-30.015 39.554-47.946 84.707-52.569 131.826h-62.57c-4.961-45.331-23.43-91.26-54.157-134.19-15.985-22.333-22.444-49.876-18.188-77.556 7.293-47.43 49.733-88.262 103.846-88.262 58.661 0 104.861 47.891 104.861 105.008 0 23.032-7.339 44.877-21.223 63.174z">
                </path>
                <path
                    d="m256 62c8.284 0 15-6.716 15-15v-32c0-8.284-6.716-15-15-15s-15 6.716-15 15v32c0 8.284 6.716 15 15 15z">
                </path>
                <path
                    d="m419.385 149.99 25.98-15c7.174-4.142 9.632-13.316 5.49-20.49-4.142-7.175-13.316-9.633-20.49-5.49l-25.98 15c-7.174 4.142-9.632 13.316-5.49 20.49 4.162 7.21 13.349 9.613 20.49 5.49z">
                </path>
                <path
                    d="m92.615 304.01-25.98 15c-7.174 4.142-9.632 13.316-5.49 20.49 4.163 7.21 13.35 9.613 20.49 5.49l25.98-15c7.174-4.142 9.632-13.316 5.49-20.49-4.141-7.175-13.316-9.632-20.49-5.49z">
                </path>
                <path
                    d="m338.5 84.105c7.141 4.124 16.33 1.716 20.49-5.49l15-25.98c4.142-7.174 1.684-16.348-5.49-20.49-7.174-4.144-16.349-1.685-20.49 5.49l-15 25.98c-4.142 7.175-1.684 16.348 5.49 20.49z">
                </path>
                <path
                    d="m153.01 78.615c4.163 7.21 13.35 9.613 20.49 5.49 7.174-4.142 9.632-13.316 5.49-20.49l-15-25.98c-4.142-7.174-13.315-9.633-20.49-5.49-7.174 4.142-9.632 13.316-5.49 20.49z">
                </path>
                <path
                    d="m445.365 319.01-25.98-15c-7.175-4.143-16.349-1.684-20.49 5.49-4.142 7.174-1.684 16.348 5.49 20.49l25.98 15c7.141 4.124 16.33 1.716 20.49-5.49 4.143-7.174 1.685-16.348-5.49-20.49z">
                </path>
                <path
                    d="m107.615 124.01-25.98-15c-7.175-4.144-16.348-1.684-20.49 5.49s-1.684 16.348 5.49 20.49l25.98 15c7.141 4.124 16.33 1.716 20.49-5.49 4.143-7.174 1.685-16.348-5.49-20.49z">
                </path>
                <path
                    d="m466 212h-30c-8.284 0-15 6.716-15 15s6.716 15 15 15h30c8.284 0 15-6.716 15-15s-6.716-15-15-15z">
                </path>
                <path
                    d="m91 227c0-8.284-6.716-15-15-15h-30c-8.284 0-15 6.716-15 15s6.716 15 15 15h30c8.284 0 15-6.716 15-15z">
                </path>
                <path
                    d="m275.394 216.394-19.394 19.393-19.394-19.393c-5.857-5.858-15.355-5.858-21.213 0s-5.858 15.355 0 21.213l25.607 25.606v53.787c0 8.284 6.716 15 15 15s15-6.716 15-15v-53.787l25.606-25.606c5.858-5.858 5.858-15.355 0-21.213-5.857-5.859-15.355-5.859-21.212 0z">
                </path>
            </g>
        </svg>