<svg version="1.1" xmlns="http://www.w3.org/2000/svg" xmlns:xlink="http://www.w3.org/1999/xlink"
        x="0px" y="0px" viewbox="0 0 512 512" style="enable-background:new 0 0 512 512;"
        xml:space="preserve">
        <g>
          <g>
            <path
              d="M256,0C114.848,0,0,114.848,0,256s114.848,256,256,256s256-114.848,256-256S397.152,0,256,0z M256,480                                                      C132.48,480,32,379.52,32,256S132.48,32,256,32s224,100.48,224,224S379.52,480,256,480z">
            </path>
          </g>
        </g>
        <g>
          <g>
            <path
              d="M340.688,292.688L272,361.376V96h-32v265.376l-68.688-68.688l-22.624,22.624l96,96c3.12,3.12,7.216,4.688,11.312,4.688                                                      s8.192-1.568,11.312-4.688l96-96L340.688,292.688z">
            </path>
          </g>
        </g>
      </svg>